<?xml version="1.0" encoding="utf-8"?>
<!-- Generator: Adobe Illustrator 20.1.0, SVG Export Plug-In . SVG Version: 6.00 Build 0)  -->
<svg version="1.1" id="icons" xmlns="http://www.w3.org/2000/svg" xmlns:xlink="http://www.w3.org/1999/xlink" x="0px" y="0px"
	 viewBox="0 0 50 50" enable-background="new 0 0 50 50" xml:space="preserve">
<path id="menu" d="M43.2,35.3v2.9c0,0.8-0.7,1.5-1.5,1.5H9.3c-0.8,0-1.5-0.7-1.5-1.5v-2.9c0-0.8,0.7-1.5,1.5-1.5h32.4
	C42.5,33.8,43.2,34.5,43.2,35.3z M43.2,23.5v2.9c0,0.8-0.7,1.5-1.5,1.5H9.3c-0.8,0-1.5-0.7-1.5-1.5v-2.9c0-0.8,0.7-1.5,1.5-1.5h32.4
	C42.5,22.1,43.2,22.7,43.2,23.5z M43.2,11.8v2.9c0,0.8-0.7,1.5-1.5,1.5H9.3c-0.8,0-1.5-0.7-1.5-1.5v-2.9c0-0.8,0.7-1.5,1.5-1.5h32.4
	C42.5,10.3,43.2,10.9,43.2,11.8z"/>
</svg>
